<svg xmlns="http://www.w3.org/2000/svg" viewBox="0 0 385.06 129.84"><defs><style>.cls-1{fill:#dada1f;}.cls-1,.cls-2,.cls-3{fill-rule:evenodd;}.cls-2{fill:#d68500;}.cls-3{fill:#009045;}.cls-4{fill:#5b5b5f;}</style></defs><g id="Capa_2" data-name="Capa 2"><g id="Capa_1-2" data-name="Capa 1"><path class="cls-1" d="M65.9,103q-7.43,0-9.63-6.61l-3.13-9.86H22.39l-3.13,9.75Q16.94,103,9.75,103A9.9,9.9,0,0,1,2.9,100.4,8.32,8.32,0,0,1,0,94a7.46,7.46,0,0,1,.46-2.78l.24-.93c.07-.15.15-.31.23-.46L24.25,28.41a16,16,0,0,1,5.28-7.25,13.16,13.16,0,0,1,8.29-2.84q9.75,0,13.46,10.09,5.46,13.92,10.91,27.85Q71,79.12,74.84,92.34c.15,1.24.23,1.93.23,2.09a7.94,7.94,0,0,1-2.67,6.21A9.45,9.45,0,0,1,65.9,103Zm-28-62.3-9.75,28H47.11l-9.17-28Zm74.84,61.61h-24a10.67,10.67,0,0,1-7.43-2.73,9,9,0,0,1-3-7V29.34a9,9,0,0,1,2.9-7,10.67,10.67,0,0,1,7.42-2.61H111a23.88,23.88,0,0,1,16.35,5.8A19.25,19.25,0,0,1,134,40.71q0,10.78-8.7,16.13a22.4,22.4,0,0,1,11.19,7.48,19.15,19.15,0,0,1,4.35,12.36q0,12.41-8,19.26-7.55,6.38-20.07,6.38Zm-6.73-65.44H98V51.5h8q8.24,0,8.23-7.77a5.94,5.94,0,0,0-2.37-5.11,9.67,9.67,0,0,0-5.86-1.74Zm3.24,31.79H98V85.15h12.65q9.74,0,9.74-8.7,0-7.78-11.14-7.78Zm97,34.34a9.45,9.45,0,0,0,6.5-2.37,7.94,7.94,0,0,0,2.67-6.21c0-.16-.08-.85-.24-2.09q-3.83-13.23-12.64-36.08-5.46-13.93-10.91-27.85Q188,18.31,178.21,18.32a13.16,13.16,0,0,0-8.29,2.84,16,16,0,0,0-5.28,7.25L141.32,89.79l-.24.46-.23.93a7.46,7.46,0,0,0-.46,2.78,8.32,8.32,0,0,0,2.9,6.44,9.88,9.88,0,0,0,6.84,2.61q7.2,0,9.52-6.72l3.13-9.75h30.75l3.13,9.86q2.21,6.61,9.63,6.61Zm-28-62.3,9.16,28H168.58l9.75-28Zm96.41,59.87a52.62,52.62,0,0,1-18,3.13q-18.1,0-29.7-12.41Q215.57,79.22,215.57,61t11.14-30.16q11.61-12.54,30-12.53A47.13,47.13,0,0,1,273,20.87q9.87,3.6,9.87,11.25a8.81,8.81,0,0,1-2.33,6.15,7.73,7.73,0,0,1-6,2.56q-1.74,0-7.54-2.09a29,29,0,0,0-10.21-1.86q-10.09,0-15.78,7.54-5,6.73-5,16.94t5.22,16.71q5.68,7.08,15.55,7.08,3.83,0,10.85-2.38a73.28,73.28,0,0,1,7.6-2.38A8.91,8.91,0,0,1,284,89.21Q284,97.33,274.74,100.58Z"></path><path class="cls-2" d="M303.78,82.13c1,1.15,2.85,1.3,4,1.45.65.08,1.39.24,2,.31,1.6.16,6.36.7,8,.7a2.45,2.45,0,0,1,.48,0,4.52,4.52,0,0,1,1.55.23c-1.29.9-5.05,1-6.84,1.14a10.78,10.78,0,0,0-1.68,0c-.6.12-1.41.7-1.25,1.34,2.31,2.65,19.73,5.89,33.61-2.33l-.7-1c-2.88-9.6,0-13.27-.71-19.2-2.23-9.84,5.27,1,6.18,5.11,2.06.91,5-6.18,5.13-6.86a36.21,36.21,0,0,0,.43-9.75c-.08-1.08-.44-2.63-.06-3.3.84-1.47,2.09-.69,2.6.7A31.05,31.05,0,0,1,357.81,61a27.08,27.08,0,0,1-.32,3.2l-.66,3.08a5.93,5.93,0,0,0,.38-1c.3-1,.71-2,.91-3a30,30,0,0,0,1-8.38c0-1.12-.36-2.68-.11-3.27.42-1,1.84-1.84,2.7-.23s.71,5,.64,6.64a42.51,42.51,0,0,1-.72,6.26l-.44,2a24.34,24.34,0,0,0,2.26-6.12c.34-1.6.58-6.29,2.65-5.13,1.22.68.85,2.36.74,3.2-.14,1.09-.3,2.17-.48,3.25-.09.55-.2,1.08-.3,1.64-.17,1-1,4.33-1.07,4.74,1.14-2,1.41-5.29,1.79-5.48,3.06-1.49-.47,10.78-.84,11.72-19.75,50.07-86.77,28-81.83-19.33.55.43,1.17.9,1.89,1.44s11.73,7.23,11.09,3.89c-.08-.42-3.18-1.54-4.82-3.16.39.13,3.39,1.85,4.29,2.27L298,60c1,.47,2,.9,3,1.32.79.33,2.31,1.13,3.29.13,1.66-1.69-2.8-3.15-4.26-3.91a24.27,24.27,0,0,1-5.3-3.77l1.81.94A42.47,42.47,0,0,0,302.43,57c1.56.49,4.85,1.52,6.57,1.13s1.31-2,.49-2.67c-.51-.4-2.1-.5-3.18-.76a30.1,30.1,0,0,1-7.83-3.13c-.87-.45-1.78-1.12-2.63-1.66a5.88,5.88,0,0,1-.84-.62l2.8,1.45a28.71,28.71,0,0,0,3,1.14A30.94,30.94,0,0,0,311,53.35c1.48-.13,2.56-1.13,1.36-2.33-.55-.54-2.14-.6-3.2-.81a35.6,35.6,0,0,1-9.29-3c-.63-.29-6.7-5-5.28-6.75,4.19.2,16.63-4.2,6.55-4.62-3-.43-4.31-1.19-5.15-1.95,13.84-14.67,50.17-13.87,48.3-9-.38.44-5.65.55-8.65,1.31,3.55.75,13.32,0,17.94,2.18.77,3.09-5.4,1.74-7.6,1.62s-7.06.12-8.71.76l2.74.14a57.11,57.11,0,0,1,8.37,1.28c2.14.49,6.65,1.54,8.37,3.17s.14,3.22-1.25,3.41c-.86.12-2.76-.85-4.2-1.28a40.1,40.1,0,0,0-11.19-1.71c-1.31-.07-2.83.08-4.17.13a7.25,7.25,0,0,0-1.41.15l4.24.23a37.38,37.38,0,0,1,4.25.72c3.64.79,9.55,3,12.83,5.29,1.62,1.16,2.19,3,0,3.61-1,.26-2.88-.75-4.25-1.23a48,48,0,0,0-12.78-2.89c-.93-.1-11.16,1.23-10.7,4.21,5,2.63,17.31,17.12,5.36,10.75-11.13-4.55-8.09,1.54-17.66-4.28-3,1.59,1.47,5.85,3.06,7.28,2.09,1.88,11.47,7,3.9,8.56-3.68.75-8.91-.28-12.54-1.33-1.31-.38-2.78-.82-4.13-1.3a35.1,35.1,0,0,0-4.2-1.5c-1.47,0-2.76,1.43-.51,3.38,2.91,2.52,9.16,4.69,12.58,5.56a37.62,37.62,0,0,0,8.37,1,11.89,11.89,0,0,1-1.41.16,13.41,13.41,0,0,1-1.42,0c-1.16,0-1.29.07-2.82,0a46.47,46.47,0,0,1-5.66-.59,37.32,37.32,0,0,1-5.68-1.62c-.94-.33-1.91-.71-2.85-1.08-2.79-1.11-4.69.25-2.9,2.67,2.39,3.24,13.06,5,17,5.4l2.85.16c-.74.1-1.39.23-2.17.32s-1.52.11-2.28.2l-3.36.07c-2.48.15-6.76-1.16-7.9-.06A1.7,1.7,0,0,0,303.78,82.13Z"></path><path class="cls-3" d="M343.28,20.67l.07-.07.07.16s0-.08,0-.3c5.13-5.69,21.52-15.89,26.69-9.4-6.61-.58-23.95,4.81-26.64,10.56l1,.69c.05.05,0,0,.17.13,13.72,7.33,26.27-1,38.57-9.46l1.6-1.07c.16-.15.16.15.22-.4-.08-.08-.15-.09-.25-.19-.34-.34-.67-.71-1-1-28.12-25.36-38.75,3.45-40.33,9.37-.05-4.2-1.8-18.47-19-10.3l-.67.37c-.06,0-.1,0-.16.06-.05.29,0,.14.06.24l.64.78c5,6.13,10.05,12.28,18.11,10.64a.39.39,0,0,0,.11,0l.6-.21c-.49-3.32-8.46-8.67-11.89-9.39,3.56-2.47,10.17,5,12,8.66C343.26,20.62,343.26,20.7,343.28,20.67Z"></path><path class="cls-4" d="M11.42,129.75a1.28,1.28,0,0,1-1.33-.91l-.43-1.36H5.43L5,128.82a1.27,1.27,0,0,1-1.31.93,1.35,1.35,0,0,1-.94-.36,1.14,1.14,0,0,1-.4-.89,1,1,0,0,1,.06-.38l0-.13,0-.06,3.21-8.45a2.14,2.14,0,0,1,.72-1,1.84,1.84,0,0,1,1.15-.39,1.86,1.86,0,0,1,1.85,1.39l1.5,3.83c.81,2.1,1.39,3.75,1.74,5,0,.17,0,.26,0,.28a1.08,1.08,0,0,1-.37.86A1.27,1.27,0,0,1,11.42,129.75Zm-3.85-8.58L6.23,125h2.6Z"></path><path class="cls-4" d="M16.76,129.84a5.13,5.13,0,0,1-2.2-.52c-.78-.37-1.17-.81-1.17-1.35a1.09,1.09,0,0,1,.36-.78,1.12,1.12,0,0,1,.79-.35,2.94,2.94,0,0,1,1.2.38,3,3,0,0,0,1.18.37,1.16,1.16,0,0,0,.62-.11.44.44,0,0,0,.15-.37c0-.18-.4-.42-1.19-.72a8.77,8.77,0,0,1-1.91-.91,2.09,2.09,0,0,1-.91-1.77,2.44,2.44,0,0,1,1-2A3.66,3.66,0,0,1,17,121a4.76,4.76,0,0,1,1.92.37c.75.33,1.13.79,1.13,1.39a1.13,1.13,0,0,1-.31.8,1,1,0,0,1-.79.33,5.57,5.57,0,0,1-1-.33,3.55,3.55,0,0,0-1.11-.31c-.41,0-.62.16-.62.47s.38.41,1.15.7a10.71,10.71,0,0,1,2.06,1,1.87,1.87,0,0,1,.8,1.7,2.43,2.43,0,0,1-1.1,2.08A4.07,4.07,0,0,1,16.76,129.84Z"></path><path class="cls-4" d="M25.52,129.84a4,4,0,0,1-3.08-1.27,4.65,4.65,0,0,1,0-6.3,4.25,4.25,0,0,1,6.13,0,4.47,4.47,0,0,1,1.21,3.16,4.37,4.37,0,0,1-1.21,3.15A4,4,0,0,1,25.52,129.84Zm0-6.53a1.39,1.39,0,0,0-1.23.61,2.56,2.56,0,0,0-.45,1.5,2.48,2.48,0,0,0,.44,1.44,1.43,1.43,0,0,0,1.24.63,1.47,1.47,0,0,0,1.28-.67,2.5,2.5,0,0,0,.38-1.4A2.57,2.57,0,0,0,26.8,124,1.47,1.47,0,0,0,25.52,123.31Z"></path><path class="cls-4" d="M37.17,129.44a5,5,0,0,1-1.92.4,4.06,4.06,0,0,1-3.08-1.27A4.38,4.38,0,0,1,31,125.42a4.44,4.44,0,0,1,1.24-3.15A4.07,4.07,0,0,1,35.25,121a5.34,5.34,0,0,1,1.84.3c.75.28,1.13.7,1.13,1.25a1.35,1.35,0,0,1-.29.85.9.9,0,0,1-.75.38,3.21,3.21,0,0,1-.91-.22,3.38,3.38,0,0,0-.91-.21,1.56,1.56,0,0,0-1.31.59,2.46,2.46,0,0,0-.48,1.52,2.28,2.28,0,0,0,.47,1.44,1.62,1.62,0,0,0,1.32.63A10,10,0,0,0,37,127a1.21,1.21,0,0,1,.85.32,1.09,1.09,0,0,1,.33.82C38.22,128.73,37.87,129.16,37.17,129.44Z"></path><path class="cls-4" d="M40.81,120.43A1.51,1.51,0,0,1,39.36,119a1.32,1.32,0,0,1,.44-1,1.5,1.5,0,0,1,2,0,1.3,1.3,0,0,1,.43,1,1.36,1.36,0,0,1-.43,1A1.39,1.39,0,0,1,40.81,120.43Zm0,9.32a1.21,1.21,0,0,1-1-.4,1.45,1.45,0,0,1-.36-1v-6a1.44,1.44,0,0,1,.36-1,1.32,1.32,0,0,1,1.91,0,1.44,1.44,0,0,1,.35,1v6a1.49,1.49,0,0,1-.35,1A1.25,1.25,0,0,1,40.81,129.75Z"></path><path class="cls-4" d="M51.94,129.25c-.15.33-.51.5-1.07.5A1.16,1.16,0,0,1,49.7,129a2.88,2.88,0,0,1-2.12.88,3.7,3.7,0,0,1-2.85-1.24,4.57,4.57,0,0,1-1.13-3.18,4.71,4.71,0,0,1,1.07-3.1A3.59,3.59,0,0,1,47.58,121a2.73,2.73,0,0,1,2.1.83,1.2,1.2,0,0,1,1.19-.73c.55,0,.9.16,1.05.49a2.54,2.54,0,0,1,.21,1.1v5.5A2.79,2.79,0,0,1,51.94,129.25Zm-4-5.94a1.37,1.37,0,0,0-1.23.61,2.56,2.56,0,0,0-.45,1.5,2.41,2.41,0,0,0,.44,1.44,1.49,1.49,0,0,0,2.47,0,2.79,2.79,0,0,0,0-2.81A1.4,1.4,0,0,0,47.9,123.31Z"></path><path class="cls-4" d="M59.83,129.44a5,5,0,0,1-1.91.4,4.08,4.08,0,0,1-3.09-1.27,4.66,4.66,0,0,1,0-6.3A4,4,0,0,1,57.92,121a5.24,5.24,0,0,1,1.83.3c.76.28,1.14.7,1.14,1.25a1.41,1.41,0,0,1-.29.85.9.9,0,0,1-.75.38,3.14,3.14,0,0,1-.91-.22,3.46,3.46,0,0,0-.91-.21,1.55,1.55,0,0,0-1.31.59,2.46,2.46,0,0,0-.48,1.52,2.28,2.28,0,0,0,.46,1.44,1.63,1.63,0,0,0,1.33.63A9.75,9.75,0,0,0,59.7,127a1.18,1.18,0,0,1,.85.32,1.1,1.1,0,0,1,.34.82C60.89,128.73,60.54,129.16,59.83,129.44Z"></path><path class="cls-4" d="M63.48,120.43a1.4,1.4,0,0,1-1-.44,1.36,1.36,0,0,1-.43-1,1.31,1.31,0,0,1,.43-1,1.48,1.48,0,0,1,1-.4,1.44,1.44,0,0,1,1,.4,1.27,1.27,0,0,1,.43,1,1.42,1.42,0,0,1-1.45,1.43Zm0,9.32a1.22,1.22,0,0,1-1-.4,1.49,1.49,0,0,1-.35-1v-6a1.49,1.49,0,0,1,.35-1,1.2,1.2,0,0,1,1-.41,1.22,1.22,0,0,1,1,.41,1.49,1.49,0,0,1,.35,1v6a1.45,1.45,0,0,1-.36,1A1.24,1.24,0,0,1,63.48,129.75Z"></path><path class="cls-4" d="M70.56,129.84a4.06,4.06,0,0,1-3.09-1.28,4.47,4.47,0,0,1-1.21-3.19,4.53,4.53,0,0,1,1.23-3.18,4.24,4.24,0,0,1,6.14,0,4.53,4.53,0,0,1,1.21,3.19,4.46,4.46,0,0,1-1.18,3.16A4,4,0,0,1,70.56,129.84ZM72,119.49l-2.06.78-.08,0a1.06,1.06,0,0,1-.39,0,.88.88,0,0,1-.73-.45,1.54,1.54,0,0,1-.26-.85.83.83,0,0,1,.55-.76l.12-.07,1.89-.75a2.34,2.34,0,0,1,.69-.16,1,1,0,0,1,.73.37,1.34,1.34,0,0,1,.29.75A1.06,1.06,0,0,1,72,119.49Zm-1.44,3.76a1.41,1.41,0,0,0-1.23.6,2.69,2.69,0,0,0-.45,1.52,2.57,2.57,0,0,0,.44,1.47,1.43,1.43,0,0,0,1.24.64,1.47,1.47,0,0,0,1.28-.69,2.55,2.55,0,0,0,.38-1.42,2.65,2.65,0,0,0-.38-1.45A1.47,1.47,0,0,0,70.56,123.25Z"></path><path class="cls-4" d="M82.94,129.75a1.21,1.21,0,0,1-1-.4,1.44,1.44,0,0,1-.36-1v-3.87a1.2,1.2,0,0,0-1.34-1.37,1.27,1.27,0,0,0-1,.37,1.43,1.43,0,0,0-.34,1v3.87a1.48,1.48,0,0,1-.35,1,1.25,1.25,0,0,1-1,.4,1.22,1.22,0,0,1-1-.4,1.43,1.43,0,0,1-.35-1v-5.91a1.4,1.4,0,0,1,.35-1,1.19,1.19,0,0,1,1-.4,1.09,1.09,0,0,1,1.13.64A2.84,2.84,0,0,1,81,121a3.34,3.34,0,0,1,2.39.86,3,3,0,0,1,.91,2.29v4.25a1.4,1.4,0,0,1-.36,1A1.2,1.2,0,0,1,82.94,129.75Z"></path><path class="cls-4" d="M98.11,129.75A1.2,1.2,0,0,1,96.9,129a2.58,2.58,0,0,1-2.05.84A3.6,3.6,0,0,1,92,128.5a4.46,4.46,0,0,1-1.09-3,5.08,5.08,0,0,1,1-3.18,3.66,3.66,0,0,1,4.93-.8v-2.73a1.49,1.49,0,0,1,.35-1,1.22,1.22,0,0,1,1-.4,1.19,1.19,0,0,1,1,.4,1.49,1.49,0,0,1,.35,1v9.58a1.45,1.45,0,0,1-.36,1A1.23,1.23,0,0,1,98.11,129.75Zm-3-6.5a1.43,1.43,0,0,0-1.25.68,2.56,2.56,0,0,0-.4,1.44,2.51,2.51,0,0,0,.4,1.44,1.43,1.43,0,0,0,1.25.67,1.41,1.41,0,0,0,1.26-.72,2.67,2.67,0,0,0,.38-1.47,2.51,2.51,0,0,0-.38-1.41A1.46,1.46,0,0,0,95.16,123.25Z"></path><path class="cls-4" d="M108.2,126.3h-4.73c.21.86.88,1.29,2,1.29a8.2,8.2,0,0,0,2.26-.77,1.78,1.78,0,0,1,.35-.12,1,1,0,0,1,.77.34,1.09,1.09,0,0,1,.33.77c0,.53-.43,1-1.29,1.41a6,6,0,0,1-2.62.62A4.4,4.4,0,0,1,102,128.6a4.3,4.3,0,0,1-1.24-3.18,4.39,4.39,0,0,1,1.24-3.15,4,4,0,0,1,3.06-1.31,4.19,4.19,0,0,1,3,1.24,4,4,0,0,1,1.28,3A1,1,0,0,1,108.2,126.3Zm-3.13-3.18a1.6,1.6,0,0,0-1.09.39,1.78,1.78,0,0,0-.58,1h3.31A1.51,1.51,0,0,0,105.07,123.12Z"></path><path class="cls-4" d="M120.63,129.65h-3.3a1.48,1.48,0,0,1-1-.37,1.28,1.28,0,0,1-.41-1V119.6a1.22,1.22,0,0,1,.4-1,1.44,1.44,0,0,1,1-.36h3.08a3.27,3.27,0,0,1,2.26.8,2.67,2.67,0,0,1,.91,2.09,2.43,2.43,0,0,1-1.2,2.22,3,3,0,0,1,1.54,1,2.62,2.62,0,0,1,.6,1.7,3.31,3.31,0,0,1-1.1,2.65A4.15,4.15,0,0,1,120.63,129.65Zm-.92-9H118.6v2h1.11c.75,0,1.13-.35,1.13-1.07a.82.82,0,0,0-.33-.7A1.31,1.31,0,0,0,119.71,120.64Zm.44,4.38H118.6v2.27h1.75c.89,0,1.34-.4,1.34-1.2S121.18,125,120.15,125Z"></path><path class="cls-4" d="M133.88,129.25c-.15.33-.51.5-1.07.5a1.17,1.17,0,0,1-1.17-.79,2.86,2.86,0,0,1-2.12.88,3.66,3.66,0,0,1-2.84-1.24,4.53,4.53,0,0,1-1.14-3.18,4.71,4.71,0,0,1,1.07-3.1,3.62,3.62,0,0,1,2.91-1.36,2.75,2.75,0,0,1,2.11.83,1.18,1.18,0,0,1,1.18-.73c.55,0,.9.16,1.05.49a2.54,2.54,0,0,1,.21,1.1v5.5A2.62,2.62,0,0,1,133.88,129.25Zm-4-5.94a1.37,1.37,0,0,0-1.23.61,2.56,2.56,0,0,0-.45,1.5,2.48,2.48,0,0,0,.44,1.44,1.43,1.43,0,0,0,1.24.63,1.41,1.41,0,0,0,1.23-.68,2.79,2.79,0,0,0,0-2.81A1.4,1.4,0,0,0,129.84,123.31Z"></path><path class="cls-4" d="M142.51,129.75a1.24,1.24,0,0,1-1-.4,1.48,1.48,0,0,1-.35-1v-3.87a1.2,1.2,0,0,0-1.34-1.37,1.24,1.24,0,0,0-1,.37,1.43,1.43,0,0,0-.35,1v3.87a1.48,1.48,0,0,1-.35,1,1.22,1.22,0,0,1-1,.4,1.25,1.25,0,0,1-1-.4,1.48,1.48,0,0,1-.35-1v-5.91a1.44,1.44,0,0,1,.35-1,1.22,1.22,0,0,1,1-.4,1.1,1.1,0,0,1,1.14.64,2.8,2.8,0,0,1,2.15-.74,3.38,3.38,0,0,1,2.4.86,3,3,0,0,1,.91,2.29v4.25a1.4,1.4,0,0,1-.36,1A1.21,1.21,0,0,1,142.51,129.75Z"></path><path class="cls-4" d="M151.52,129.44a5,5,0,0,1-1.91.4,4.08,4.08,0,0,1-3.09-1.27,4.66,4.66,0,0,1,0-6.3,4,4,0,0,1,3.06-1.31,5.24,5.24,0,0,1,1.83.3c.76.28,1.14.7,1.14,1.25a1.41,1.41,0,0,1-.29.85.9.9,0,0,1-.75.38,3.14,3.14,0,0,1-.91-.22,3.46,3.46,0,0,0-.91-.21,1.55,1.55,0,0,0-1.31.59,2.46,2.46,0,0,0-.48,1.52,2.28,2.28,0,0,0,.46,1.44,1.64,1.64,0,0,0,1.33.63,10,10,0,0,0,1.68-.46,1.17,1.17,0,0,1,.84.32,1.06,1.06,0,0,1,.34.82C152.58,128.73,152.23,129.16,151.52,129.44Z"></path><path class="cls-4" d="M157.87,129.84a4.06,4.06,0,0,1-3.08-1.27,4.38,4.38,0,0,1-1.22-3.15,4.44,4.44,0,0,1,1.24-3.15,4.07,4.07,0,0,1,3.06-1.31,4,4,0,0,1,3.07,1.3,4.43,4.43,0,0,1,1.21,3.16,4.37,4.37,0,0,1-1.21,3.15A4,4,0,0,1,157.87,129.84Zm0-6.53a1.39,1.39,0,0,0-1.23.61,2.56,2.56,0,0,0-.45,1.5,2.48,2.48,0,0,0,.44,1.44,1.43,1.43,0,0,0,1.24.63,1.47,1.47,0,0,0,1.28-.67,2.5,2.5,0,0,0,.38-1.4,2.57,2.57,0,0,0-.38-1.44A1.47,1.47,0,0,0,157.87,123.31Z"></path><path class="cls-4" d="M166.52,129.84a5.17,5.17,0,0,1-2.21-.52c-.78-.37-1.16-.81-1.16-1.35a1.12,1.12,0,0,1,.35-.78,1.14,1.14,0,0,1,.8-.35,3,3,0,0,1,1.19.38,3.12,3.12,0,0,0,1.19.37,1.18,1.18,0,0,0,.62-.11.47.47,0,0,0,.14-.37c0-.18-.39-.42-1.18-.72a8.68,8.68,0,0,1-1.92-.91,2.12,2.12,0,0,1-.91-1.77,2.44,2.44,0,0,1,1-2,3.69,3.69,0,0,1,2.29-.7,4.72,4.72,0,0,1,1.91.37c.76.33,1.14.79,1.14,1.39a1.18,1.18,0,0,1-.31.8,1,1,0,0,1-.79.33,5.52,5.52,0,0,1-1-.33,3.51,3.51,0,0,0-1.1-.31c-.42,0-.62.16-.62.47s.38.41,1.15.7a11,11,0,0,1,2.06,1,1.87,1.87,0,0,1,.8,1.7,2.42,2.42,0,0,1-1.11,2.08A4.06,4.06,0,0,1,166.52,129.84Z"></path><path class="cls-4" d="M183.33,129.75a1.19,1.19,0,0,1-1.21-.75,2.59,2.59,0,0,1-2.05.84,3.6,3.6,0,0,1-2.87-1.34,4.46,4.46,0,0,1-1.09-3,5.08,5.08,0,0,1,1-3.18,3.67,3.67,0,0,1,4.94-.8v-2.73a1.49,1.49,0,0,1,.35-1,1.19,1.19,0,0,1,1-.4,1.22,1.22,0,0,1,1,.4,1.49,1.49,0,0,1,.35,1v9.58a1.45,1.45,0,0,1-.36,1A1.24,1.24,0,0,1,183.33,129.75Zm-3-6.5a1.42,1.42,0,0,0-1.24.68,2.56,2.56,0,0,0-.4,1.44,2.51,2.51,0,0,0,.4,1.44,1.48,1.48,0,0,0,2.51,0,2.67,2.67,0,0,0,.38-1.47,2.51,2.51,0,0,0-.38-1.41A1.47,1.47,0,0,0,180.37,123.25Z"></path><path class="cls-4" d="M193.41,126.3h-4.73c.22.86.88,1.29,2,1.29a8.18,8.18,0,0,0,2.25-.77,1.81,1.81,0,0,1,.36-.12,1,1,0,0,1,.77.34,1.09,1.09,0,0,1,.33.77c0,.53-.43,1-1.3,1.41a5.89,5.89,0,0,1-2.62.62,4.38,4.38,0,0,1-3.24-1.24,4.3,4.3,0,0,1-1.24-3.18,4.43,4.43,0,0,1,1.23-3.15,4.07,4.07,0,0,1,3.06-1.31,4.17,4.17,0,0,1,3,1.24,4,4,0,0,1,1.29,3A1,1,0,0,1,193.41,126.3Zm-3.13-3.18a1.58,1.58,0,0,0-1.08.39,1.78,1.78,0,0,0-.58,1h3.31A1.52,1.52,0,0,0,190.28,123.12Z"></path><path class="cls-4" d="M209.51,129.75a1.27,1.27,0,0,1-1.33-.91l-.43-1.36h-4.23l-.43,1.34a1.27,1.27,0,0,1-1.31.93,1.37,1.37,0,0,1-.95-.36,1.17,1.17,0,0,1-.39-.89,1,1,0,0,1,.06-.38l0-.13,0-.06,3.21-8.45a2.16,2.16,0,0,1,.73-1,1.83,1.83,0,0,1,1.14-.39,1.87,1.87,0,0,1,1.86,1.39l1.5,3.83c.81,2.1,1.39,3.75,1.74,5,0,.17,0,.26,0,.28a1.08,1.08,0,0,1-.37.86A1.27,1.27,0,0,1,209.51,129.75Zm-3.85-8.58L204.32,125h2.6Z"></path><path class="cls-4" d="M213.25,129.75a1.25,1.25,0,0,1-1-.4,1.49,1.49,0,0,1-.35-1v-9.58a1.49,1.49,0,0,1,.35-1,1.22,1.22,0,0,1,1-.4,1.2,1.2,0,0,1,1,.4,1.49,1.49,0,0,1,.35,1v9.58a1.45,1.45,0,0,1-.36,1A1.24,1.24,0,0,1,213.25,129.75Z"></path><path class="cls-4" d="M217.63,120.43a1.36,1.36,0,0,1-1-.44,1.33,1.33,0,0,1-.44-1,1.29,1.29,0,0,1,.44-1,1.44,1.44,0,0,1,1-.4,1.41,1.41,0,0,1,1,.4,1.27,1.27,0,0,1,.43,1,1.42,1.42,0,0,1-1.45,1.43Zm0,9.32a1.25,1.25,0,0,1-1-.4,1.49,1.49,0,0,1-.35-1v-6a1.49,1.49,0,0,1,.35-1,1.22,1.22,0,0,1,1-.41,1.2,1.2,0,0,1,1,.41,1.49,1.49,0,0,1,.35,1v6a1.45,1.45,0,0,1-.36,1A1.23,1.23,0,0,1,217.63,129.75Z"></path><path class="cls-4" d="M232.08,129.75a1.22,1.22,0,0,1-1-.4,1.43,1.43,0,0,1-.35-1v-3.87c0-.91-.4-1.37-1.19-1.37a1.06,1.06,0,0,0-.89.39,1.57,1.57,0,0,0-.3,1v3.87a1.48,1.48,0,0,1-.35,1,1.25,1.25,0,0,1-1,.4,1.22,1.22,0,0,1-1-.4,1.43,1.43,0,0,1-.35-1v-3.87c0-.91-.4-1.37-1.19-1.37s-1.21.46-1.21,1.37v3.87a1.48,1.48,0,0,1-.35,1,1.22,1.22,0,0,1-1,.4,1.25,1.25,0,0,1-1-.4,1.48,1.48,0,0,1-.35-1v-5.91a1.44,1.44,0,0,1,.35-1,1.22,1.22,0,0,1,1-.4,1.09,1.09,0,0,1,1.15.68,3,3,0,0,1,2.06-.78,3.08,3.08,0,0,1,2.38,1,3.36,3.36,0,0,1,2.43-1,3.51,3.51,0,0,1,2.44.82,3,3,0,0,1,.88,2.33v4.25a1.4,1.4,0,0,1-.36,1A1.22,1.22,0,0,1,232.08,129.75Z"></path><path class="cls-4" d="M242.19,126.3h-4.73c.22.86.88,1.29,2,1.29a8.18,8.18,0,0,0,2.25-.77,2,2,0,0,1,.35-.12,1,1,0,0,1,.78.34,1.09,1.09,0,0,1,.33.77c0,.53-.44,1-1.3,1.41a5.89,5.89,0,0,1-2.62.62A4.38,4.38,0,0,1,236,128.6a4.31,4.31,0,0,1-1.25-3.18,4.44,4.44,0,0,1,1.24-3.15,4.07,4.07,0,0,1,3.06-1.31,4.19,4.19,0,0,1,3,1.24,4,4,0,0,1,1.29,3A1,1,0,0,1,242.19,126.3Zm-3.13-3.18a1.6,1.6,0,0,0-1.09.39,1.77,1.77,0,0,0-.57,1h3.31A1.52,1.52,0,0,0,239.06,123.12Z"></path><path class="cls-4" d="M251.3,129.75a1.25,1.25,0,0,1-1-.4,1.48,1.48,0,0,1-.35-1v-3.87a1.2,1.2,0,0,0-1.34-1.37,1.25,1.25,0,0,0-1,.37,1.43,1.43,0,0,0-.35,1v3.87a1.43,1.43,0,0,1-.35,1,1.34,1.34,0,0,1-1.91,0,1.44,1.44,0,0,1-.36-1v-5.91a1.4,1.4,0,0,1,.36-1,1.18,1.18,0,0,1,.95-.4,1.1,1.1,0,0,1,1.14.64,2.83,2.83,0,0,1,2.15-.74,3.38,3.38,0,0,1,2.4.86,3,3,0,0,1,.91,2.29v4.25a1.4,1.4,0,0,1-.36,1A1.2,1.2,0,0,1,251.3,129.75Z"></path><path class="cls-4" d="M259,123.06a1.4,1.4,0,0,1-.9.28h-.51v5a1.45,1.45,0,0,1-.36,1,1.34,1.34,0,0,1-1.91,0,1.45,1.45,0,0,1-.35-1v-5h-.36a1.17,1.17,0,0,1-.84-.3,1.21,1.21,0,0,1,0-1.65,1.15,1.15,0,0,1,.83-.33H255V119.9a1.42,1.42,0,0,1,.35-1,1.34,1.34,0,0,1,1.91,0,1.43,1.43,0,0,1,.36,1v1.16h.51q1.26,0,1.26,1.14A1,1,0,0,1,259,123.06Z"></path><path class="cls-4" d="M264,129.84a4.07,4.07,0,0,1-3.08-1.27,4.66,4.66,0,0,1,0-6.3,4.24,4.24,0,0,1,6.12,0,4.7,4.7,0,0,1,0,6.31A4.06,4.06,0,0,1,264,129.84Zm0-6.53a1.39,1.39,0,0,0-1.23.61,2.62,2.62,0,0,0-.44,1.5,2.41,2.41,0,0,0,.44,1.44,1.41,1.41,0,0,0,1.23.63,1.46,1.46,0,0,0,1.28-.67,2.43,2.43,0,0,0,.39-1.4,2.49,2.49,0,0,0-.39-1.44A1.46,1.46,0,0,0,264,123.31Z"></path><path class="cls-4" d="M272.64,129.84a5.13,5.13,0,0,1-2.2-.52c-.78-.37-1.17-.81-1.17-1.35a1.09,1.09,0,0,1,.36-.78,1.12,1.12,0,0,1,.79-.35,2.94,2.94,0,0,1,1.2.38,3,3,0,0,0,1.18.37,1.16,1.16,0,0,0,.62-.11.44.44,0,0,0,.15-.37c0-.18-.4-.42-1.19-.72a8.77,8.77,0,0,1-1.91-.91,2.09,2.09,0,0,1-.91-1.77,2.44,2.44,0,0,1,1-2,3.66,3.66,0,0,1,2.28-.7,4.8,4.8,0,0,1,1.92.37c.75.33,1.13.79,1.13,1.39a1.13,1.13,0,0,1-.31.8,1,1,0,0,1-.79.33,5.57,5.57,0,0,1-1-.33,3.55,3.55,0,0,0-1.11-.31c-.41,0-.62.16-.62.47s.38.41,1.15.7a10.71,10.71,0,0,1,2.06,1,1.87,1.87,0,0,1,.8,1.7,2.43,2.43,0,0,1-1.1,2.08A4.09,4.09,0,0,1,272.64,129.84Z"></path><path class="cls-4" d="M289.45,129.75a1.2,1.2,0,0,1-1.21-.75,2.58,2.58,0,0,1-2.05.84,3.61,3.61,0,0,1-2.87-1.34,4.51,4.51,0,0,1-1.09-3,5.08,5.08,0,0,1,1-3.18,3.66,3.66,0,0,1,4.93-.8v-2.73a1.45,1.45,0,0,1,.36-1,1.34,1.34,0,0,1,1.91,0,1.45,1.45,0,0,1,.35,1v9.58a1.45,1.45,0,0,1-.36,1A1.23,1.23,0,0,1,289.45,129.75Zm-2.95-6.5a1.43,1.43,0,0,0-1.25.68,2.64,2.64,0,0,0-.4,1.44,2.59,2.59,0,0,0,.4,1.44,1.44,1.44,0,0,0,1.25.67,1.41,1.41,0,0,0,1.26-.72,2.59,2.59,0,0,0,.38-1.47,2.44,2.44,0,0,0-.38-1.41A1.46,1.46,0,0,0,286.5,123.25Z"></path><path class="cls-4" d="M299.54,126.3h-4.73c.21.86.88,1.29,2,1.29a8.18,8.18,0,0,0,2.25-.77,2,2,0,0,1,.35-.12,1,1,0,0,1,.77.34,1.09,1.09,0,0,1,.33.77c0,.53-.43,1-1.29,1.41a5.92,5.92,0,0,1-2.62.62,4.38,4.38,0,0,1-3.24-1.24,4.31,4.31,0,0,1-1.25-3.18,4.39,4.39,0,0,1,1.24-3.15,4,4,0,0,1,3.06-1.31,4.19,4.19,0,0,1,3,1.24,4,4,0,0,1,1.28,3A1,1,0,0,1,299.54,126.3Zm-3.13-3.18a1.6,1.6,0,0,0-1.09.39,1.71,1.71,0,0,0-.57,1h3.3A1.51,1.51,0,0,0,296.41,123.12Z"></path><path class="cls-4" d="M315,129.41a7.23,7.23,0,0,1-2.48.43,5.34,5.34,0,0,1-4.09-1.71A5.8,5.8,0,0,1,306.8,124a5.86,5.86,0,0,1,1.53-4.15,5.4,5.4,0,0,1,4.14-1.72,6.39,6.39,0,0,1,2.24.35c.9.33,1.35.84,1.35,1.55a1.16,1.16,0,0,1-.32.84,1,1,0,0,1-.83.35,4.2,4.2,0,0,1-1-.28,4,4,0,0,0-1.4-.26,2.56,2.56,0,0,0-2.17,1,3.81,3.81,0,0,0-.69,2.33,3.57,3.57,0,0,0,.72,2.3,2.59,2.59,0,0,0,2.14,1A5,5,0,0,0,314,127a10.93,10.93,0,0,1,1.05-.33,1.16,1.16,0,0,1,.85.36,1.18,1.18,0,0,1,.36.86A1.61,1.61,0,0,1,315,129.41Z"></path><path class="cls-4" d="M321.77,129.84a4.06,4.06,0,0,1-3.08-1.27,4.38,4.38,0,0,1-1.22-3.15,4.44,4.44,0,0,1,1.24-3.15,4.07,4.07,0,0,1,3.06-1.31,4,4,0,0,1,3.07,1.3,4.73,4.73,0,0,1,0,6.31A4.06,4.06,0,0,1,321.77,129.84Zm0-6.53a1.39,1.39,0,0,0-1.23.61,2.56,2.56,0,0,0-.45,1.5,2.48,2.48,0,0,0,.44,1.44,1.44,1.44,0,0,0,1.24.63,1.47,1.47,0,0,0,1.28-.67,2.5,2.5,0,0,0,.38-1.4,2.57,2.57,0,0,0-.38-1.44A1.47,1.47,0,0,0,321.77,123.31Z"></path><path class="cls-4" d="M328.82,129.75a1.24,1.24,0,0,1-1-.4,1.49,1.49,0,0,1-.35-1v-9.58a1.49,1.49,0,0,1,.35-1,1.2,1.2,0,0,1,1-.4,1.22,1.22,0,0,1,1,.4,1.49,1.49,0,0,1,.35,1v9.58a1.45,1.45,0,0,1-.36,1A1.24,1.24,0,0,1,328.82,129.75Z"></path><path class="cls-4" d="M335.9,129.84a4.06,4.06,0,0,1-3.08-1.27,4.38,4.38,0,0,1-1.22-3.15,4.44,4.44,0,0,1,1.24-3.15A4.07,4.07,0,0,1,335.9,121a4,4,0,0,1,3.07,1.3,4.73,4.73,0,0,1,0,6.31A4.06,4.06,0,0,1,335.9,129.84Zm0-6.53a1.39,1.39,0,0,0-1.23.61,2.56,2.56,0,0,0-.45,1.5,2.48,2.48,0,0,0,.44,1.44,1.44,1.44,0,0,0,1.24.63,1.47,1.47,0,0,0,1.28-.67,2.5,2.5,0,0,0,.38-1.4,2.57,2.57,0,0,0-.38-1.44A1.47,1.47,0,0,0,335.9,123.31Z"></path><path class="cls-4" d="M353,129.75a1.25,1.25,0,0,1-1-.4,1.48,1.48,0,0,1-.35-1v-3.87c0-.91-.39-1.37-1.18-1.37a1.06,1.06,0,0,0-.89.39,1.51,1.51,0,0,0-.31,1v3.87a1.43,1.43,0,0,1-.35,1,1.22,1.22,0,0,1-1,.4,1.25,1.25,0,0,1-1-.4,1.48,1.48,0,0,1-.35-1v-3.87c0-.91-.39-1.37-1.18-1.37s-1.21.46-1.21,1.37v3.87a1.48,1.48,0,0,1-.35,1,1.25,1.25,0,0,1-1,.4,1.22,1.22,0,0,1-1-.4,1.43,1.43,0,0,1-.35-1v-5.91a1.4,1.4,0,0,1,.35-1,1.19,1.19,0,0,1,1-.4,1.1,1.1,0,0,1,1.15.68,3,3,0,0,1,2.06-.78,3.08,3.08,0,0,1,2.38,1,3.36,3.36,0,0,1,2.43-1,3.47,3.47,0,0,1,2.43.82,3,3,0,0,1,.89,2.33v4.25a1.4,1.4,0,0,1-.36,1A1.22,1.22,0,0,1,353,129.75Z"></path><path class="cls-4" d="M360.76,129.84a2.57,2.57,0,0,1-2.06-.84,1.19,1.19,0,0,1-1.21.75,1.24,1.24,0,0,1-1-.4,1.49,1.49,0,0,1-.35-1v-9.58a1.49,1.49,0,0,1,.35-1,1.2,1.2,0,0,1,1-.4,1.22,1.22,0,0,1,1,.4,1.49,1.49,0,0,1,.35,1v2.73a3.67,3.67,0,0,1,4.94.8,5.18,5.18,0,0,1,1,3.18,4.54,4.54,0,0,1-1.07,3A3.63,3.63,0,0,1,360.76,129.84Zm-.3-6.59a1.43,1.43,0,0,0-1.26.65,2.35,2.35,0,0,0-.4,1.39,2.79,2.79,0,0,0,.38,1.49,1.45,1.45,0,0,0,1.28.7,1.43,1.43,0,0,0,1.23-.7,2.5,2.5,0,0,0,.4-1.41,2.66,2.66,0,0,0-.38-1.44A1.41,1.41,0,0,0,360.46,123.25Z"></path><path class="cls-4" d="M367.49,120.43A1.51,1.51,0,0,1,366,119a1.32,1.32,0,0,1,.44-1,1.5,1.5,0,0,1,2,0,1.3,1.3,0,0,1,.43,1,1.36,1.36,0,0,1-.43,1A1.39,1.39,0,0,1,367.49,120.43Zm0,9.32a1.21,1.21,0,0,1-.95-.4,1.45,1.45,0,0,1-.36-1v-6a1.44,1.44,0,0,1,.36-1,1.32,1.32,0,0,1,1.91,0,1.44,1.44,0,0,1,.35,1v6a1.45,1.45,0,0,1-.36,1A1.23,1.23,0,0,1,367.49,129.75Z"></path><path class="cls-4" d="M378.62,129.25c-.15.33-.51.5-1.07.5a1.16,1.16,0,0,1-1.17-.79,2.88,2.88,0,0,1-2.12.88,3.7,3.7,0,0,1-2.85-1.24,4.57,4.57,0,0,1-1.13-3.18,4.66,4.66,0,0,1,1.07-3.1,3.59,3.59,0,0,1,2.91-1.36,2.73,2.73,0,0,1,2.1.83,1.2,1.2,0,0,1,1.19-.73c.55,0,.9.16,1.05.49a2.54,2.54,0,0,1,.21,1.1v5.5A2.79,2.79,0,0,1,378.62,129.25Zm-4-5.94a1.4,1.4,0,0,0-1.24.61,2.62,2.62,0,0,0-.44,1.5,2.41,2.41,0,0,0,.44,1.44,1.41,1.41,0,0,0,1.24.63,1.38,1.38,0,0,0,1.22-.68,2.73,2.73,0,0,0,0-2.81A1.37,1.37,0,0,0,374.58,123.31Z"></path></g></g></svg>